<svg version="1.1" id="Layer_1" xmlns="http://www.w3.org/2000/svg" xmlns:xlink="http://www.w3.org/1999/xlink" x="0px" y="0px"
	 viewBox="0 0 100 100" style="enable-background:new 0 0 100 100;" xml:space="preserve">
	<g transform="translate(0, -5)">
		<path fill="#ff7133" d="M4.592,60.724l0.42,2.352s1.12,0.588,2.744,0.588c1.792,0,3.388-0.784,3.388-2.268c0-3.276-9.464-1.82-9.464-8.736c0-3.864,3.052-5.936,7.112-5.936c3.164,0,6.16,1.12,6.16,1.12l-0.14,5.096l-2.576,0l-0.7-2.38s-1.26-0.42-2.464-0.42c-1.988,0-2.968,0.868-2.968,1.988c0,3.248,9.436,1.96,9.436,8.54c0,4.2-3.248,6.496-7.56,6.496c-3.164,0-6.244-1.064-6.244-1.064l0-5.376l2.856,0z" />
		<path fill="#1a9eac" d="M31.564,63.44l0.616-3.08l2.66,0l0,6.44l-14,0l0-2.38l2.1-0.84l0-13.16l-2.1-0.84l0-2.38l8.54-0.14l0,2.52l-2.1,0.84l0,13.02l4.284,0z M47.59428,66.8l-0.504-1.82s-2.156,2.1-4.536,2.1c-2.716,0-4.368-1.596-4.368-4.396c0-3.304,2.492-4.62,6.748-4.62l1.96,0l0-1.54c0-1.428-0.756-2.044-2.156-2.044c-1.428,0-2.464,0.42-2.464,0.42l-0.42,1.764l-2.52,0l-0.196-4.144s3.388-1.12,6.076-1.12c4.256,0,5.88,1.484,5.88,5.544l0,6.916l2.1,0.504l0,2.24z M46.89428,60.444l-1.596,0c-2.184,0-3.052,0.56-3.052,1.82c0,1.064,0.588,1.68,1.652,1.68c1.484,0,2.996-1.624,2.996-1.624l0-1.876z M62.75656,51.68l0.196,1.932s2.66-2.156,5.152-2.156c2.716,0,4.256,1.932,4.256,4.984l0,7.42l1.96,0.7l0,2.24l-7.7,0l0-2.24l1.54-0.7l0-6.664c0-1.288-0.728-2.24-1.904-2.24c-1.736,0-2.996,1.596-2.996,1.596l0,7.308l1.54,0.7l0,2.24l-7.98,0l0-2.24l2.24-0.7l0-9.1l-2.24-0.7l0-2.24z M83.40684,64.28l4.144,0c3.556,0,5.6,1.54,5.6,4.34c0,3.08-2.464,5.32-7.84,5.32c-4.396,0-7.224-0.98-7.224-4.06c0-2.408,2.94-3.36,2.94-3.36s-1.68-0.252-1.68-1.848c0-0.812,1.12-2.632,1.456-3.164c-0.672-0.448-2.156-1.652-2.156-4.368c0-3.836,2.884-5.74,6.72-5.74c1.624,0,2.772,0.42,3.304,0.672l4.816-0.112l0,2.24l-2.296,0.392c0.056,0.252,0.476,1.008,0.476,2.212c0,4.06-2.856,5.74-6.72,5.74c-0.756,0-1.316-0.14-1.428-0.14z M85.22684,54.284c-1.68,0-2.38,0.896-2.38,2.66c0,1.68,0.644,2.8,2.24,2.8c1.764,0,2.38-0.924,2.38-2.8c0-1.764-0.7-2.66-2.24-2.66z M86.43084,67.36l-2.94,0s-1.344,0.616-1.344,1.82c0,1.4,1.204,1.68,3.5,1.68c2.52,0,3.584-0.56,3.584-1.904c0-1.26-0.924-1.596-2.8-1.596z" />
	</g>
</svg>